# xmcd CD database file
#
# Track frame offsets:
#	150
#	14650
#	27600
#	46890
#	64000
#	84330
#	98172
#	118240
#	139880
#	157367
#
# Disc length: 2291 seconds
#
# Revision: 0
# Processed by: cddbd v1.5.1PL2 Copyright (c) Steve Scherf et al.
# Submitted via: CDex 1.51
#
DISCID=8d08f10a
DTITLE=BLOOD CIRCUS - BORN TO LOVE!!
DYEAR=2001
DGENRE=Heavy Metal
TTITLE0=Such Is Life
TTITLE1=Faceless
TTITLE2=Imagine
TTITLE3=Paradise Dog
TTITLE4=Concrete Garden
TTITLE5=Mad City
TTITLE6=TV Nation
TTITLE7=Humanity
TTITLE8=Samurai Pierrot
TTITLE9=Mask
EXTD=YEAR: 2001
EXTT0=
EXTT1=
EXTT2=
EXTT3=
EXTT4=
EXTT5=
EXTT6=
EXTT7=
EXTT8=
EXTT9=
PLAYORDER=
